<svg xmlns="http://www.w3.org/2000/svg" version="1.1" xmlns:xlink="http://www.w3.org/1999/xlink" xmlns:svgjs="http://svgjs.dev/svgjs" viewBox="0 0 1422 800"><defs><filter id="uuunion-blur" x="-100%" y="-100%" width="400%" height="400%" color-interpolation-filters="sRGB">
        <feGaussianBlur in="SourceGraphic" stdDeviation="7.5 0" result="blur"></feGaussianBlur>
        <feDropShadow stdDeviation="12.307692307692308" in="blur" dx="10" dy="10" flood-color="#db1ec5" flood-opacity="0.25" x="0%" y="0%" width="100%" height="100%"></feDropShadow>
      </filter><filter id="uuunion-blur2" x="-100%" y="-100%" width="400%" height="400%" color-interpolation-filters="sRGB">
        <feGaussianBlur in="SourceGraphic" stdDeviation="7.5 0" result="blur"></feGaussianBlur>
        <feDropShadow stdDeviation="12.307692307692308" in="blur" dx="-10" dy="-10" flood-color="#db1ec5" flood-opacity="0.25" x="0%" y="0%" width="100%" height="100%"></feDropShadow>
      </filter><linearGradient gradientTransform="rotate(0, 0.5, 0.5)" x1="50%" y1="0%" x2="50%" y2="100%" id="uuunion-grad"><stop stop-color="#ff8df4" offset="10%"></stop><stop stop-color="#db1ec5" offset="90%"></stop></linearGradient><linearGradient gradientTransform="rotate(135, 0.5, 0.5)" x1="50%" y1="0%" x2="50%" y2="100%" id="uuunion-grad2"><stop stop-color="#ff8df4" offset="25%"></stop><stop stop-color="#db1ec5" offset="100%"></stop></linearGradient><linearGradient gradientTransform="rotate(333, 0.5, 0.5)" x1="50%" y1="0%" x2="50%" y2="100%" id="uuunion-grad3"><stop stop-color="#ff8df4" offset="0%"></stop><stop stop-color="#db1ec5" offset="75%"></stop></linearGradient></defs><path d="M-133.52 -88.53Q-120.47 -88.77 -107.41 -88.13 -94.36 -86.68 -81.31 -84.56 -68.26 -81.98 -55.2 -79.21 -42.15 -76.51 -29.1 -74.16 -16.04 -72.4 -2.99 -71.39 10.05 -71.24 23.1 -71.97 36.16 -73.5 49.21 -75.68 62.26 -78.29 75.32 -81.07 88.37 -83.74 101.42 -86.04 114.47 -87.73 127.53 -88.65 140.58 -88.71 153.63 -87.9 166.68 -86.29 179.74 -84.06 192.79 -81.42 205.84 -78.64 218.9 -75.99 231.95 -73.75 245 -72.12 258.05 -71.29 271.11 -71.32 284.16 -72.22 297.21 -73.9 310.27 -76.19 323.32 -78.85 336.37 -81.63 349.42 -84.25 362.48 -86.44 375.53 -87.99 388.58 -88.74 401.64 -88.61 414.69 -87.63 427.74 -85.88 440.79 -83.54 453.85 -80.85 466.9 -78.08 479.95 -75.49 493.01 -73.36 506.06 -71.89 519.11 -71.22 532.16 -71.44 545.22 -72.51 558.27 -74.33 571.32 -76.71 584.38 -79.42 597.43 -82.19 610.48 -84.74 623.54 -86.82 636.59 -88.21 649.64 -88.78 662.69 -88.48 675.75 -87.33 688.8 -85.44 701.85 -83.01 714.91 -80.28 727.96 -77.52 741.01 -75.01 754.06 -73 767.12 -71.68 780.17 -71.2 793.22 -71.59 806.28 -72.82 819.33 -74.77 832.38 -77.25 845.43 -79.99 858.49 -82.74 871.54 -85.21 884.59 -87.16 897.65 -88.4 910.7 -88.79 923.75 -88.31 936.8 -87 949.86 -84.98 962.91 -82.47 975.96 -79.71 989.02 -76.98 1002.07 -74.55 1015.12 -72.66 1028.18 -71.51 1041.23 -71.21 1054.28 -71.78 1067.33 -73.17 1080.39 -75.25 1093.44 -77.8 1106.49 -80.56 1119.55 -83.28 1132.6 -85.66 1145.65 -87.48 1158.7 -88.55 1171.76 -88.77 1184.81 -88.11 1197.86 -86.63 1210.92 -84.5 1223.97 -81.92 1237.02 -79.14 1250.07 -76.45 1263.13 -74.11 1276.18 -72.36 1289.23 -71.38 1302.29 -71.25 1315.34 -72 1328.39 -73.55 1341.45 -75.74 1354.5 -78.35 1367.55 -81.13 1380.6 -83.8 1393.66 -86.09 1406.71 -87.76 1419.76 -88.67 1432.82 -88.7 1445.87 -87.87 1458.92 -86.25 1471.98 -84 1485.03 -81.35 1498.08 -78.57 1511.13 -75.93 1524.19 -73.7 1537.24 -72.1 1531.23 -56.89 1530.86 -41.69 1536.19 -26.49 1546.32 -11.29 1559.5 3.9 1573.49 19.11 1585.89 34.31 1594.57 49.51 1598.06 64.71 1595.75 79.91 1588.05 95.12 1576.26 110.32 1562.4 125.52 1548.86 140.72 1537.94 155.92 1531.51 171.13 1530.67 186.33 1535.57 201.53 1545.37 216.73 1558.39 231.93 1572.4 247.14 1585.01 262.34 1594.06 277.54 1597.99 292.74 1596.15 307.94 1588.83 323.15 1577.3 338.35 1563.53 353.55 1549.87 368.75 1538.66 383.95 1531.82 399.16 1530.52 414.36 1534.99 429.56 1544.45 444.76 1557.29 459.96 1571.31 475.17 1584.11 490.37 1593.51 505.57 1597.89 520.77 1596.5 535.97 1589.59 551.18 1578.33 566.38 1564.65 581.58 1550.9 596.78 1539.42 611.98 1532.18 627.19 1530.41 642.39 1534.43 657.59 1543.54 672.79 1556.19 687.99 1570.2 703.2 1583.19 718.4 1592.93 733.6 1597.75 748.8 1596.83 764 1590.32 779.21 1579.35 794.41 1565.78 809.61 1551.94 824.81 1540.2 840.01 1532.56 855.22 1530.34 870.42 1531.73 891.11 1516.45 890.7 1503.34 883.74 1490.23 876.41 1477.12 869.44 1464.01 863.52 1450.9 859.24 1437.79 857.04 1424.68 857.13 1411.57 859.51 1398.46 863.93 1385.36 869.96 1372.25 876.99 1359.14 884.32 1346.03 891.22 1332.92 897 1319.81 901.07 1306.7 903.05 1293.59 902.71 1280.48 900.11 1267.38 895.5 1254.27 889.34 1241.16 882.25 1228.05 874.93 1214.94 868.12 1201.83 862.49 1188.72 858.61 1175.61 856.87 1162.5 857.44 1149.4 860.26 1136.29 865.06 1123.18 871.34 1110.07 878.49 1096.96 885.79 1083.85 892.52 1070.74 897.99 1057.63 901.66 1044.52 903.17 1031.41 902.36 1018.31 899.32 1005.2 894.35 992.09 887.94 978.98 880.74 965.87 873.47 952.76 866.85 939.65 861.54 926.54 858.07 913.43 856.8 900.33 857.84 887.22 861.1 874.11 866.24 861 872.76 847.89 880 834.78 887.24 821.67 893.76 808.56 898.9 795.45 902.15 782.35 903.19 769.24 901.91 756.13 898.45 743.02 893.13 729.91 886.51 716.8 879.24 703.69 872.04 690.58 865.63 677.47 860.66 664.37 857.63 651.26 856.82 638.15 858.33 625.04 862.01 611.93 867.48 598.82 874.21 585.71 881.51 572.6 888.66 559.49 894.94 546.39 899.73 533.28 902.55 520.17 903.12 507.06 901.37 493.95 897.49 480.84 891.87 467.73 885.05 454.62 877.73 441.52 870.64 428.41 864.48 415.3 859.87 402.19 857.27 389.08 856.95 375.97 858.92 362.86 863 349.75 868.78 336.64 875.68 323.54 883.01 310.43 890.04 297.32 896.06 284.21 900.48 271.1 902.86 257.99 902.95 244.88 900.74 231.77 896.47 218.66 890.55 205.56 883.57 192.45 876.24 179.34 869.28 166.23 863.39 153.12 859.16 140.01 857.02 126.9 857.17 113.79 859.59 100.69 864.06 87.58 870.12 74.47 877.17 61.36 884.49 48.25 891.37 35.14 897.11 22.03 901.15 8.92 903.06 -4.18 902.68 -17.28 900.03 -30.39 895.37 -43.5 889.18 -56.61 882.07 -69.72 874.76 -82.83 867.97 -95.94 862.38 -109.05 858.55 -122.15 856.86 -135.26 857.48 -132.45 842.7 -131.3 827.92 -132.02 813.14 -134.47 798.35 -138.25 783.57 -142.69 768.79 -147.06 754.01 -150.58 739.23 -152.67 724.45 -152.97 709.66 -151.42 694.88 -148.29 680.1 -144.12 665.32 -139.61 650.54 -135.55 635.76 -132.62 620.98 -131.33 606.19 -131.89 591.41 -134.22 576.63 -137.91 561.85 -142.33 547.07 -146.73 532.29 -150.35 517.5 -152.57 502.72 -153.02 487.94 -151.61 473.16 -148.59 458.38 -144.47 443.6 -139.96 428.81 -135.84 414.03 -132.8 399.25 -131.36 384.47 -131.78 369.69 -133.98 354.91 -137.58 340.12 -141.97 325.34 -146.4 310.56 -150.1 295.78 -152.46 281 -153.05 266.22 -151.78 251.43 -148.88 236.65 -144.82 221.87 -140.32 207.09 -136.13 192.31 -132.98 177.53 -131.41 162.74 -131.68 147.96 -133.74 133.18 -137.25 118.4 -141.61 103.62 -146.06 88.84 -149.85 74.05 -152.33 59.27 -153.07 44.49 -151.95 29.71 -149.16 14.93 -145.17 0.15 -140.68 -14.63 -136.44 -29.41 -133.18 -44.19 -131.47 -58.97 -131.59 -73.75 -133.52 -88.53" fill="url(#uuunion-grad)"></path><path d="M-133.53 -88.53Q-131.6 -73.75 -131.48 -58.97 -133.19 -44.19 -136.45 -29.41 -140.69 -14.63 -145.18 0.15 -149.17 14.93 -151.96 29.71 -153.08 44.49 -152.34 59.27 -149.86 74.05 -146.07 88.84 -141.62 103.62 -137.26 118.4 -133.75 133.18 -131.69 147.96 -131.42 162.74 -132.99 177.53 -136.14 192.31 -140.33 207.09 -144.83 221.87 -148.89 236.65 -151.79 251.43 -153.06 266.22 -152.47 281 -150.11 295.78 -146.41 310.56 -141.98 325.34 -137.59 340.12 -133.99 354.91 -131.79 369.69 -131.37 384.47 -114.06 384.6 -96.75 386.81 -88.09 389.01 -79.44 391.7 -70.78 394.75 -62.13 398.05 -53.47 401.43 -44.81 404.74 -36.16 407.84 -27.5 410.6 -18.85 412.88 -10.19 414.58 6.16 415.9 9.05 415.98 19.9 412.06 30.69 407.09 41.44 401.21 52.15 394.61 62.82 387.54 73.48 380.28 84.11 373.11 94.74 366.31 105.36 360.13 115.99 354.78 126.63 350.41 137.28 347.1 147.96 344.86 158.67 343.61 169.42 343.23 180.2 343.52 191.03 344.23 201.9 345.1 212.82 345.85 223.8 346.22 234.82 345.96 245.89 344.88 257.02 342.85 268.19 339.79 279.41 335.71 290.67 330.67 301.98 324.83 313.32 318.36 324.69 311.51 336.09 304.53 347.51 297.7 358.94 291.27 370.39 285.46 381.83 280.46 393.27 276.39 404.7 273.31 416.11 271.21 427.5 270.01 438.85 269.58 450.17 269.72 461.44 270.2 472.66 270.78 483.83 271.19 494.94 271.19 505.98 270.57 516.96 269.16 527.87 266.84 538.7 263.57 549.47 259.36 560.16 254.3 570.79 248.51 581.34 242.2 591.83 235.59 602.25 228.92 612.62 222.43 622.93 216.36 633.2 210.91 643.42 206.23 653.6 202.42 663.77 199.54 673.91 197.55 684.04 196.37 694.18 195.85 704.32 195.82 714.49 196.06 724.68 196.33 734.92 196.4 745.2 196.04 755.55 195.07 765.96 193.35 776.45 190.78 787.04 187.33 797.71 183.03 808.49 177.96 819.38 172.28 830.39 166.15 841.51 159.8 852.77 153.43 864.15 147.29 875.65 141.57 887.29 136.46 899.06 132.08 910.96 128.51 922.98 125.79 935.13 123.87 947.39 122.67 959.76 122.05 972.23 121.82 984.79 121.8 997.44 121.75 1010.16 121.47 1022.94 120.77 1035.77 119.47 1048.63 117.46 1061.52 114.67 1074.41 111.07 1087.29 106.72 1100.15 101.69 1112.97 96.13 1125.73 90.21 1138.42 84.12 1151.03 78.08 1163.54 72.28 1175.94 66.9 1188.21 62.11 1200.33 58 1212.31 54.64 1224.12 52.05 1235.77 50.17 1247.23 48.91 1258.5 48.15 1269.58 47.71 1280.46 47.4 1291.14 47.04 1301.61 46.42 1311.89 45.38 1321.97 43.77 1331.85 41.5 1341.54 38.52 1351.06 34.82 1360.4 30.44 1369.57 25.48 1378.6 20.07 1387.49 14.38 1396.25 8.58 1404.92 2.86 1413.49 -2.59 1422 -7.64 1407.9 -24.94 1397.08 -42.24 1392.02 -59.54 1393.91 -76.84 1402.31 -94.14 1415.27 -111.44 1417.39 -138.22 1392.37 -137.64 1379.84 -135.56 1367.3 -133.86 1354.77 -132.69 1342.24 -132.13 1329.71 -132.25 1317.17 -133.03 1304.64 -134.4 1292.11 -136.25 1279.58 -138.42 1267.05 -140.72 1254.51 -142.96 1241.98 -144.95 1229.45 -146.52 1216.92 -147.53 1204.38 -147.89 1191.85 -147.59 1179.32 -146.63 1166.79 -145.11 1154.26 -143.15 1141.72 -140.92 1129.19 -138.62 1116.66 -136.43 1104.13 -134.54 1091.6 -133.12 1079.06 -132.29 1066.53 -132.11 1054 -132.61 1041.47 -133.74 1028.93 -135.4 1016.4 -137.45 1003.87 -139.72 991.34 -142.01 978.81 -144.13 966.27 -145.9 953.74 -147.17 941.21 -147.82 928.68 -147.8 916.14 -147.12 903.61 -145.83 891.08 -144.04 878.55 -141.91 866.02 -139.61 853.48 -137.35 840.95 -135.31 828.42 -133.67 815.89 -132.57 803.36 -132.11 790.82 -132.31 778.29 -133.18 765.76 -134.62 753.23 -136.52 740.69 -138.72 728.16 -141.03 715.63 -143.25 703.1 -145.19 690.57 -146.69 678.03 -147.62 665.5 -147.89 652.97 -147.5 640.44 -146.46 627.91 -144.87 615.37 -142.86 602.84 -140.62 590.31 -138.31 577.78 -136.15 565.24 -134.32 552.71 -132.98 540.18 -132.23 527.65 -132.14 515.12 -132.73 502.58 -133.93 490.05 -135.65 477.52 -137.75 464.99 -140.03 452.45 -142.31 439.92 -144.4 427.39 -146.1 414.86 -147.29 402.33 -147.86 389.79 -147.75 377.26 -146.98 364.73 -145.62 352.2 -143.77 339.67 -141.61 327.13 -139.3 314.6 -137.06 302.07 -135.06 289.54 -133.49 277 -132.47 264.47 -132.1 251.94 -132.39 239.41 -133.34 226.88 -134.85 214.34 -136.81 201.81 -139.03 189.28 -141.34 176.75 -143.53 164.21 -145.42 151.68 -146.85 139.15 -147.69 126.62 -147.88 114.09 -147.39 101.55 -146.27 89.02 -144.62 76.49 -142.57 63.96 -140.31 51.43 -138.01 38.89 -135.89 26.36 -134.11 13.83 -132.84 1.3 -132.18 -11.23 -132.18 -23.76 -132.85 -36.29 -134.14 -48.82 -135.92 -61.35 -138.05 -73.89 -140.34 -86.42 -142.61 -98.95 -144.65 -111.48 -146.3 -124.01 -147.4 -136.55 -147.88 -151.87 -139.99 -147.15 -117.74 -139.86 -103.15 -133.53 -88.53" fill="url(#uuunion-grad2)" filter="url(#uuunion-blur)"></path><path d="M1437.4 308.68Q1446.4 306.93 1455.41 305.76 1464.42 305.23 1473.42 305.35 1482.43 306.13 1491.44 307.53 1500.44 309.48 1509.45 311.91 1518.46 314.69 1527.46 317.71 1536.47 320.83 1545.48 323.92 1554.48 326.83 1563.49 329.43 1572.5 331.62 1581.5 333.28 1565.88 351.02 1549.87 368.75 1537.18 386.49 1530.74 404.22 1532.06 421.96 1540.82 439.69 1555 457.43 1571.31 475.17 1585.97 492.9 1595.58 510.64 1597.93 528.37 1592.45 546.11 1580.43 563.84 1564.65 581.58 1548.77 599.32 1536.45 617.05 1530.57 634.79 1532.47 652.52 1541.73 670.26 1556.19 687.99 1572.5 705.73 1586.89 723.47 1596.03 741.2 1597.78 758.94 1591.76 776.67 1579.35 794.41 1563.42 812.14 1547.68 829.88 1535.76 847.61 1530.43 865.35 1531.78 890.05 1518.61 891.77 1506.59 885.53 1494.57 878.83 1482.54 872.23 1470.52 866.28 1458.49 861.49 1446.47 858.25 1434.45 856.84 1422.42 857.39 1410.4 859.83 1398.37 863.97 1386.35 869.46 1374.32 875.84 1362.3 882.57 1350.28 889.08 1338.25 894.82 1326.23 899.32 1314.2 902.19 1302.18 903.19 1290.15 902.25 1278.13 899.42 1266.11 894.97 1254.08 889.25 1242.06 882.75 1230.03 876.02 1218.01 869.63 1205.98 864.11 1193.96 859.92 1181.94 857.43 1169.91 856.83 1157.89 858.19 1145.86 861.38 1133.84 866.13 1121.82 872.06 1109.79 878.65 1097.77 885.35 1085.74 891.61 1073.72 896.88 1061.69 900.74 1049.67 902.85 1037.65 903.03 1025.62 901.28 1013.6 897.73 1001.57 892.7 989.55 886.59 977.52 879.93 965.5 873.27 953.48 867.18 941.45 862.17 929.43 858.66 917.4 856.94 905.38 857.17 893.35 859.31 881.33 863.2 869.31 868.5 857.28 874.77 845.26 881.48 833.23 888.06 821.21 893.97 809.19 898.69 797.16 901.85 785.14 903.16 773.11 902.53 761.09 900 749.06 895.78 737.04 890.24 725.02 883.83 712.99 877.1 700.97 870.62 688.94 864.92 676.92 860.49 664.89 857.71 652.87 856.8 640.85 857.84 628.82 860.75 616.8 865.27 604.77 871.04 592.75 877.56 580.73 884.28 568.7 890.65 556.68 896.12 544.65 900.23 532.63 902.63 520.6 903.14 508.58 901.69 496.56 898.42 484.53 893.6 472.51 887.63 460.48 881.02 448.46 874.32 436.43 868.1 424.41 862.89 412.39 859.11 400.36 857.09 388.34 857 376.31 858.84 364.29 862.46 352.26 867.56 340.24 873.71 328.22 880.39 316.19 887.03 304.17 893.08 292.14 898.03 280.12 901.46 268.1 903.08 256.07 902.76 244.05 900.53 232.02 896.57 220 891.21 207.97 884.91 195.95 878.19 183.93 871.63 171.9 865.77 159.88 861.11 147.85 858.03 135.83 856.81 123.8 857.54 111.78 860.16 99.76 864.44 87.73 870.04 75.71 876.48 63.68 883.21 51.66 889.67 39.63 895.31 27.61 899.67 10.25 897.7 5.8 882.89 6.18 872.74 6 862.59 5.28 852.44 4.09 842.29 1.82 827.07 1.64 822 12.89 814.69 24.24 805.56 35.73 794.87 47.38 783.02 59.21 770.52 71.23 757.92 83.44 745.78 95.84 734.6 108.4 724.82 121.12 716.72 133.96 710.46 146.9 706.02 159.89 703.22 172.92 701.76 185.94 701.19 198.92 701.01 211.85 700.69 224.69 699.7 237.43 697.6 250.05 694.03 262.57 688.77 274.97 681.74 287.27 673.04 299.49 662.89 311.64 651.64 323.75 639.76 335.85 627.73 347.98 616.06 360.15 605.23 372.41 595.62 384.77 587.53 397.26 581.09 409.9 576.31 422.7 573.04 435.66 571 448.78 569.82 462.04 569.05 475.43 568.19 488.92 566.78 502.48 564.39 516.07 560.71 529.64 555.52 543.15 548.74 556.56 540.43 569.82 530.79 582.89 520.14 595.73 508.86 608.32 497.4 620.63 486.23 632.65 475.77 644.37 466.38 655.81 458.33 666.98 451.75 677.92 446.66 688.66 442.95 699.25 440.37 709.75 438.59 720.23 437.22 730.74 435.81 741.36 433.95 752.16 431.25 763.2 427.42 774.55 422.26 786.25 415.68 795.67 413.27 805.1 410.1 814.55 406.25 824.02 401.88 833.5 397.15 843.01 392.25 852.53 387.36 862.08 382.7 871.64 378.43 881.23 374.71 890.85 371.69 900.48 369.44 910.14 368.02 919.83 367.44 929.54 367.66 939.28 368.6 949.05 370.14 958.84 372.14 968.67 374.41 978.52 376.77 988.4 379.02 998.31 380.99 1008.24 382.5 1018.21 383.4 1028.21 383.58 1038.24 382.97 1048.29 381.53 1058.38 379.28 1068.5 376.28 1078.64 372.6 1088.82 368.4 1099.03 363.82 1109.26 359.05 1119.53 354.27 1129.82 349.67 1140.14 345.43 1150.49 341.7 1160.87 338.62 1171.27 336.29 1181.7 334.75 1192.15 334.03 1202.63 334.09 1213.14 334.86 1223.66 336.23 1234.21 338.06 1244.78 340.19 1255.37 342.43 1265.98 344.6 1276.61 346.51 1287.26 348.01 1297.92 348.93 1308.59 349.18 1319.28 348.67 1329.99 347.36 1340.7 345.26 1351.42 342.42 1362.16 338.92 1372.89 334.88 1383.64 330.45 1394.39 325.82 1405.14 321.14 1415.89 316.61 1426.65 312.41 1437.4 308.68" fill="url(#uuunion-grad3)" filter="url(#uuunion-blur2)"></path></svg>